<svg width="48" height="48" viewBox="0 0 48 48" fill="none" xmlns="http://www.w3.org/2000/svg">
<path d="M24.9995 3C21.4595 3 18.3395 5.34 17.3395 8.74C16.2795 8.26 15.1595 8 13.9995 8C11.8778 8 9.84295 8.84285 8.34266 10.3431C6.84237 11.8434 5.99951 13.8783 5.99951 16C6.00425 17.7717 6.5955 19.4919 7.68095 20.8921C8.7664 22.2924 10.2849 23.2938 11.9995 23.74V38H37.9995V23.74C41.5195 22.82 43.9995 19.64 43.9995 16C43.9995 13.8783 43.1567 11.8434 41.6564 10.3431C40.1561 8.84285 38.1212 8 35.9995 8C34.8395 8 33.7195 8.26 32.6595 8.74C31.6595 5.34 28.5395 3 24.9995 3ZM23.9995 21H25.9995V35H23.9995V21ZM17.9995 25H19.9995V35H17.9995V25ZM29.9995 25H31.9995V35H29.9995V25ZM11.9995 40V42C11.9995 42.5304 12.2102 43.0391 12.5853 43.4142C12.9604 43.7893 13.4691 44 13.9995 44H35.9995C36.5299 44 37.0387 43.7893 37.4137 43.4142C37.7888 43.0391 37.9995 42.5304 37.9995 42V40H11.9995Z" fill="#4AB148"/>
</svg>
