<svg width="22" height="22" viewBox="0 0 22 22" fill="none" xmlns="http://www.w3.org/2000/svg">
<path d="M10.9972 7.33176C8.97734 7.33176 7.32898 8.98013 7.32898 11C7.32898 13.0199 8.97734 14.6682 10.9972 14.6682C13.0171 14.6682 14.6654 13.0199 14.6654 11C14.6654 8.98013 13.0171 7.33176 10.9972 7.33176ZM21.9991 11C21.9991 9.48096 22.0129 7.9757 21.9276 6.45943C21.8423 4.69824 21.4405 3.13518 20.1526 1.84731C18.862 0.556693 17.3017 0.157674 15.5405 0.0723668C14.0215 -0.0129408 12.5162 0.000818524 11 0.000818524C9.48093 0.000818524 7.97567 -0.0129408 6.45939 0.0723668C4.69821 0.157674 3.13515 0.559445 1.84728 1.84731C0.556663 3.13793 0.157644 4.69824 0.0723362 6.45943C-0.0129713 7.97845 0.000788006 9.48372 0.000788006 11C0.000788006 12.5163 -0.0129713 14.0243 0.0723362 15.5406C0.157644 17.3017 0.559415 18.8648 1.84728 20.1527C3.1379 21.4433 4.69821 21.8423 6.45939 21.9276C7.97842 22.0129 9.48368 21.9992 11 21.9992C12.519 21.9992 14.0242 22.0129 15.5405 21.9276C17.3017 21.8423 18.8648 21.4405 20.1526 20.1527C21.4433 18.862 21.8423 17.3017 21.9276 15.5406C22.0156 14.0243 21.9991 12.519 21.9991 11ZM10.9972 16.644C7.87385 16.644 5.35315 14.1233 5.35315 11C5.35315 7.87663 7.87385 5.35593 10.9972 5.35593C14.1206 5.35593 16.6413 7.87663 16.6413 11C16.6413 14.1233 14.1206 16.644 10.9972 16.644ZM16.8724 6.44291C16.1432 6.44291 15.5543 5.85402 15.5543 5.12477C15.5543 4.39553 16.1432 3.80664 16.8724 3.80664C17.6017 3.80664 18.1906 4.39553 18.1906 5.12477C18.1908 5.29794 18.1568 5.46944 18.0907 5.62946C18.0245 5.78948 17.9274 5.93488 17.805 6.05732C17.6825 6.17977 17.5371 6.27685 17.3771 6.34302C17.2171 6.40919 17.0456 6.44313 16.8724 6.44291Z" fill="#181930"/>
</svg>
