<svg width="22" height="22" viewBox="0 0 22 22" fill="none" xmlns="http://www.w3.org/2000/svg">
<path d="M4.30922 0C1.93945 0 -6.86646e-05 1.93947 -6.86646e-05 4.30929V17.6818C-6.86646e-05 20.0515 1.93941 21.9904 4.30922 21.9904H17.6817C20.0515 21.9904 21.9903 20.0516 21.9903 17.6818V4.30929C21.9903 1.93952 20.0515 0 17.6817 0H4.30922ZM5.39307 3.62885C6.52933 3.62885 7.22921 4.37478 7.25082 5.3553C7.25082 6.31417 6.52928 7.08107 5.37109 7.08107H5.34978C4.23515 7.08107 3.51471 6.31421 3.51471 5.3553C3.51471 4.37481 4.25695 3.62885 5.39305 3.62885H5.39307ZM15.1848 8.21167C17.3701 8.21167 19.0082 9.63995 19.0082 12.7093V18.4391H15.6872V13.0934C15.6872 11.7501 15.2066 10.8336 14.0048 10.8336C13.0873 10.8336 12.5404 11.4513 12.3003 12.0481C12.2126 12.2616 12.191 12.5597 12.191 12.8584V18.4391H8.87006C8.87006 18.4391 8.91364 9.38365 8.87006 8.44601H12.1917V9.86114C12.633 9.18024 13.4224 8.21165 15.1848 8.21165V8.21167ZM3.7106 8.44674H7.03156V18.4392H3.7106V8.44674Z" fill="#181930"/>
</svg>
