<svg width="22" height="22" viewBox="0 0 22 22" fill="none" xmlns="http://www.w3.org/2000/svg">
<path d="M9.17321 8.35312L13.8482 11.0098L9.17321 13.6665V8.35312ZM22 2.35714V19.6428C22 20.9442 20.9442 22 19.6428 22H2.35714C1.0558 22 0 20.9442 0 19.6428V2.35714C0 1.0558 1.0558 0 2.35714 0H19.6428C20.9442 0 22 1.0558 22 2.35714ZM19.9375 11.0147C19.9375 11.0147 19.9375 8.08794 19.5643 6.68348C19.358 5.90758 18.754 5.29866 17.983 5.09241C16.5933 4.71428 11 4.71428 11 4.71428C11 4.71428 5.40669 4.71428 4.01696 5.09241C3.24598 5.29866 2.64196 5.90758 2.43571 6.68348C2.0625 8.08303 2.0625 11.0147 2.0625 11.0147C2.0625 11.0147 2.0625 13.9415 2.43571 15.346C2.64196 16.1219 3.24598 16.7062 4.01696 16.9125C5.40669 17.2857 11 17.2857 11 17.2857C11 17.2857 16.5933 17.2857 17.983 16.9076C18.754 16.7013 19.358 16.1169 19.5643 15.3411C19.9375 13.9415 19.9375 11.0147 19.9375 11.0147Z" fill="#181930"/>
</svg>
